<?xml version="1.0" encoding="utf-8"?>
<!-- Generator: Adobe Illustrator 18.0.0, SVG Export Plug-In . SVG Version: 6.00 Build 0)  -->
<!DOCTYPE svg PUBLIC "-//W3C//DTD SVG 1.1//EN" "http://www.w3.org/Graphics/SVG/1.1/DTD/svg11.dtd">
<svg version="1.1" id="Layer_1" xmlns="http://www.w3.org/2000/svg" xmlns:xlink="http://www.w3.org/1999/xlink" x="0px" y="0px"
	 width="612px" height="619.2px" viewBox="0 0 612 619.2" enable-background="new 0 0 612 619.2" xml:space="preserve">
<g>
	<polygon points="431.9,174.2 280.8,174.2 280.8,149.4 431.9,149.4 	"/>
	<polygon points="431.9,233.4 280.8,233.4 280.8,208.6 431.9,208.6 	"/>
	<polygon points="431.9,292.6 280.8,292.6 280.8,267.8 431.9,267.8 	"/>
	<g>
		<path d="M341.6,510.2v-22.8c-18.7-0.7-36.8-5.3-47.4-10.3l8.4-28.2c11.7,5.5,28.2,10.6,46.3,10.6c16.2,0,27-5.5,27-14.9
			c0-9.1-8.9-14.9-29.8-20.9c-29.8-8.6-50.2-20.7-50.2-44c0-21.4,17.3-38,47.1-42.8v-22.8h27.3v21.1c18.4,0.5,30.9,4.1,40.7,7.9
			l-8.3,27.2c-7-2.9-20.1-8.4-40.2-8.4c-18.1,0-24,7-24,13.7c0,7.7,9.8,13,33.7,20.4c33.2,10.1,46.3,23.3,46.3,45.2
			c0,21.4-17.3,39.7-49.4,44.2v24.8L341.6,510.2L341.6,510.2z"/>
	</g>
	<path d="M311.2,87.1c11.8,0,24.6,0,36.4,0 M125.2,259.6l100.3,2.5l0.1,93.5h-0.5c1.6,8.3-2.4,16.5,0.3,24.8h0.2v0.6
		c0.1,0.4,0.3,0.8,0.4,1.2c-0.2-0.4-0.3-0.8-0.4-1.2v174.1h261.3v-405c0-34.5-28.1-62.6-62.6-62.6h-76.2l-0.5-0.4
		c-11.8,0-24.6,0-36.4,0l0.5,0.5H187.7c-34.5,0-62.6,28.1-62.6,62.6V201 M225.3,380.4c-2.7-8.3,1.3-16.5-0.3-24.8 M196,238.1
		 M126,201.1 M462.1,530.3H250.3V150.1c0-14.2-4.7-27.3-12.7-37.8h186.7c20.8,0,37.8,17,37.8,37.8V530.3z"/>
</g>
</svg>
