<?xml version="1.0" encoding="utf-8"?>
<!-- Generator: Adobe Illustrator 18.0.0, SVG Export Plug-In . SVG Version: 6.00 Build 0)  -->
<!DOCTYPE svg PUBLIC "-//W3C//DTD SVG 1.1//EN" "http://www.w3.org/Graphics/SVG/1.1/DTD/svg11.dtd">
<svg version="1.1" id="Layer_1" xmlns="http://www.w3.org/2000/svg" xmlns:xlink="http://www.w3.org/1999/xlink" x="0px" y="0px"
	 width="612px" height="612px" viewBox="0 0 612 612" enable-background="new 0 0 612 612" xml:space="preserve">
<g>
	<g>
		<path d="M343,368.8c10.4-5.4,14.4-18.3,9-28.7c-5.5-10.5-18.4-14.5-28.7-9c-10.5,5.5-14.5,18.4-9,28.8
			C319.7,370.3,332.5,374.3,343,368.8z"/>
	</g>
	<path d="M441.8,497.3c10.6-10.4,23.5-15.7,38.4-15.7c15.3,0,28.5,5.3,39.1,15.7c10.6,10.5,16.1,23.5,16.1,38.7
		c0,14.8-5.4,27.8-16.1,38.4c-10.6,10.6-23.8,16.1-39.1,16.1c-14.8,0-27.8-5.4-38.4-16.1c-10.6-10.6-16.1-23.6-16.1-38.4
		C425.6,520.8,431.1,507.7,441.8,497.3z M464,552.2c4.5,4.5,9.9,6.7,16.1,6.7c6.3,0,11.7-2.1,16.2-6.7c4.5-4.5,6.7-9.9,6.7-16.2
		c0-6.3-2.2-11.6-6.7-16.1c-4.5-4.5-9.9-6.8-16.2-6.8c-6.3,0-11.7,2.3-16.1,6.8c-4.5,4.5-6.7,9.9-6.7,16.1
		C457.3,542.3,459.5,547.8,464,552.2z"/>
	<path d="M173.3,497.3c-10.6-10.4-23.5-15.7-38.4-15.7c-15.3,0-28.5,5.3-39.1,15.7c-10.6,10.5-16.1,23.5-16.1,38.7
		c0,14.8,5.4,27.8,16.1,38.4c10.6,10.6,23.8,16.1,39.1,16.1c14.8,0,27.8-5.4,38.4-16.1c10.6-10.6,16.1-23.6,16.1-38.4
		C189.5,520.8,184,507.7,173.3,497.3z M151.1,552.2c-4.5,4.5-9.9,6.7-16.1,6.7s-11.7-2.1-16.1-6.7c-4.5-4.5-6.7-9.9-6.7-16.2
		c0-6.3,2.2-11.6,6.7-16.1c4.5-4.5,9.9-6.8,16.1-6.8s11.7,2.3,16.1,6.8s6.7,9.9,6.7,16.1C157.8,542.3,155.6,547.8,151.1,552.2z"/>
	<path d="M217.4,395.8h-11.7C209.5,396.4,213.3,396.6,217.4,395.8z"/>
	<path d="M217.4,395.8h0.3c0,0,0,0,0-0.1C217.5,395.8,217.5,395.8,217.4,395.8z"/>
	<path d="M576.5,474.6L576.5,474.6L576.5,474.6v-25.3c0,0,0-11.4,0-17.1h0.1v-5.8c0-19.9-17.5-35.9-39.1-35.9h-94.3l-51.6-93.2
		c-4.5-8.4-14.8-12.9-23.8-12.9H146.2c-11.2-0.3-21,6.6-24.3,17.5l-19.8,88.6H77.6c-21.6,0-39.1,16.1-39.1,35.9v5.8h0.1
		c0,5.7,0,17.1,0,17.1v25.4H22.4v31.7c0,11.2,5.6,16.8,16.9,16.8h15.5c1.4-18.8,10-34.9,25.9-48.2c16-13.3,33.8-19.9,53.6-19.9
		s37.7,6.6,53.9,19.9c16.1,13.3,24.9,29.3,26.3,48.2h186.2c1.4-18.8,10.1-34.9,26.3-48.2c16.1-13.3,34.2-19.9,53.9-19.9
		c19.8,0,37.6,6.6,53.6,19.9s24.6,29.3,25.9,48.2h15.3c11.2,0,16.9-5.7,16.9-16.8v-31.7L576.5,474.6L576.5,474.6z M250.7,384.8
		c0,6.1-4.9,11-11,11h-22h-0.3c-3.9,0.7-7.7,0.6-11.7,0h-34.2c-2.4,0.3-4.9,0.5-7.3,0.5c2.4,0,4.9-0.2,7.3-0.5h-7.5h-3.5
		c-8.6,0-12.9-4.3-12.9-12.8v-52.9c0-8.5,4.3-12.8,12.9-12.8h79.1c6.1,0,11,4.9,11,11V384.8z M397.7,395.8H289.1
		c-8.6,0-12.8-4.3-12.8-12.8v-52.5c0-8.5,4.3-12.8,12.8-12.8h74.2c5.4,0,9.3,1.4,12.3,6.3l28,60.9c0.7,1.1,1.2,2.4,1.2,4.1
		C404.7,393.6,402.4,395.8,397.7,395.8z"/>
	<path d="M357.8,395.8h11.7c0.1,0,0.2,0,0.3-0.1c-6.2-7.9-15.9-17.5-27.9-19.7c-12.2-2.3-22.4,8.8-24.5,16c-0.5,1.3-0.7,2.5-1.1,3.8
		h7.5"/>
</g>
</svg>
