<?xml version="1.0" encoding="utf-8"?>
<!-- Generator: Adobe Illustrator 18.0.0, SVG Export Plug-In . SVG Version: 6.00 Build 0)  -->
<!DOCTYPE svg PUBLIC "-//W3C//DTD SVG 1.1//EN" "http://www.w3.org/Graphics/SVG/1.1/DTD/svg11.dtd">
<svg version="1.1" id="Layer_1" xmlns="http://www.w3.org/2000/svg" xmlns:xlink="http://www.w3.org/1999/xlink" x="0px" y="0px"
	 width="612px" height="612px" viewBox="0 0 612 612" enable-background="new 0 0 612 612" xml:space="preserve">
<g>
	<g>
		<path d="M311.8,101.6c26.4,0,47.8,21.4,47.8,47.9s-21.4,47.9-47.8,47.9c-26.4,0-47.8-21.4-47.8-47.9S285.4,101.6,311.8,101.6z"/>
		<path d="M240.5,310.8v-37.5h15v37.5h113.4l0-37.5h14.7v37.5H421v-40.6c0-31.8-18.7-62.9-55.9-62.9l-107.3,0
			c-33.9,0-55.1,27.6-55.1,62.1v41.4H240.5z"/>
	</g>
</g>
<g>
	<path d="M45.3,328.2v53.6h51.1v203.1H527V381.8h48.8v-53.6H45.3z M310.5,544.1c-48.3,0-87.5-39.2-87.5-87.5
		c0-48.3,39.2-87.5,87.5-87.5c48.4,0,87.5,39.2,87.5,87.5C398,504.9,358.9,544.1,310.5,544.1z"/>
	<path d="M286.6,412.2c8,0,14.5,6.5,14.5,14.5c0,8-6.5,14.5-14.5,14.5c-8,0-14.5-6.5-14.5-14.5C272.1,418.7,278.6,412.2,286.6,412.2
		z"/>
	<path d="M334.5,412.2c8,0,14.5,6.5,14.5,14.5c0,8-6.5,14.5-14.5,14.5s-14.5-6.5-14.5-14.5C320,418.7,326.5,412.2,334.5,412.2z"/>
	<path d="M310.5,515.1c-32.6,0-59.1-26.5-59.1-59.1h19.3c0,21.9,17.8,39.7,39.7,39.7c21.9,0,39.8-17.8,39.8-39.7h19.3
		C369.6,488.6,343.1,515.1,310.5,515.1L310.5,515.1z"/>
</g>
</svg>
