<?xml version="1.0" encoding="utf-8"?>
<!-- Generator: Adobe Illustrator 18.0.0, SVG Export Plug-In . SVG Version: 6.00 Build 0)  -->
<!DOCTYPE svg PUBLIC "-//W3C//DTD SVG 1.1//EN" "http://www.w3.org/Graphics/SVG/1.1/DTD/svg11.dtd">
<svg version="1.1" id="Layer_1" xmlns="http://www.w3.org/2000/svg" xmlns:xlink="http://www.w3.org/1999/xlink" x="0px" y="0px"
	 width="612px" height="612px" viewBox="0 0 612 612" enable-background="new 0 0 612 612" xml:space="preserve">
<g>
	<path d="M502.5,210.6l-26.1,0L423.1,321l-53.3-110.4l-30.2,0c-47.5,0-82.7,38.8-82.7,87.1v34c-16.2-33.9-49.2-58.3-88.3-61.9V248
		c0-5.7-4.6-10.4-10.4-10.4s-10.4,4.6-10.4,10.4v21.8c-54.7,5.2-97.8,50.9-98.8,106.7H31.2c-5.7,0-10.4,4.6-10.4,10.3
		c0,5.7,4.6,10.3,10.4,10.3h122.6c-31.1,6.3-28.7,52.2,7.3,52.2h122v-0.2c13.3,0.1,26.6-9.9,26.6-30V303.2h16.9l0,239.5h192l0-93.4
		h42.5v-0.2c13.2,0.1,26.5-9.9,26.5-30v-58.5h0.2V299C587.8,254.4,554.7,210.6,502.5,210.6z M69.8,376.4
		c1.1-47.9,40.3-86.5,88.5-86.5s87.3,38.6,88.5,86.5H69.8z M500,522.1h-66.6V396.4H500V522.1z M535.2,329.6h-0.2v66.7h-16.3l0-93.1
		h16.5L535.2,329.6L535.2,329.6z"/>
	<polygon points="449.8,235.9 395.3,235.9 395.3,210.6 449.8,210.6 	"/>
	<circle cx="421.5" cy="131.8" r="60.2"/>
</g>
</svg>
