<?xml version="1.0" encoding="utf-8"?>
<!-- Generator: Adobe Illustrator 18.0.0, SVG Export Plug-In . SVG Version: 6.00 Build 0)  -->
<!DOCTYPE svg PUBLIC "-//W3C//DTD SVG 1.1//EN" "http://www.w3.org/Graphics/SVG/1.1/DTD/svg11.dtd">
<svg version="1.1" id="Layer_1" xmlns="http://www.w3.org/2000/svg" xmlns:xlink="http://www.w3.org/1999/xlink" x="0px" y="0px"
	 width="612px" height="612px" viewBox="0 0 612 612" enable-background="new 0 0 612 612" xml:space="preserve">
<g>
	<path d="M547.2,393.9c11,9.9,28.1,8.9,37.9-2.1c9.9-11.1,9-28.1-2.1-37.9c-11-9.9-28.1-8.9-37.9,2.1
		C535.1,367,536.1,383.9,547.2,393.9z"/>
	<path d="M526.9,349.1l-25.3-23.5c-8.5-7.9-24.8-11.2-39.8,1.9c-0.3,0.2-15.2,13.6-27.8,24.9c-6,5.4-2.5,15.3,5.5,15.8l9.4,0.6
		c2.4,0.1,4.7-0.7,6.5-2.2l7.8-6.9c3.5-3.1,8.8-3,12.2,0.2l25.2,23.5c2.7,2.5,3.6,6.4,2.3,9.8l-11,29.1c-1.5,4-0.3,8.4,2.7,11.2
		c1,0.9,2.2,1.7,3.6,2.2c5.4,2,11.4-0.8,13.4-6.3l20.2-54.2C536,365.1,534.4,356,526.9,349.1z"/>
</g>
<path d="M286.7,581.4c7,6.7,18.2,6.5,24.9-0.6c6.7-7.1,6.5-18.2-0.6-24.9c-7-6.7-18.2-6.5-24.9,0.6
	C279.4,563.5,279.6,574.7,286.7,581.4z"/>
<path d="M406.8,592.5c7,6.7,18.2,6.5,24.9-0.6c6.7-7.1,6.5-18.2-0.6-24.9c-7-6.7-18.2-6.5-24.9,0.6
	C399.4,574.6,399.7,585.8,406.8,592.5z"/>
<path d="M485.1,388.8c-1.3-1.8-3.3-3-5.5-3.2L300.2,369c-3.6-0.3-6.6-2.7-7.8-6.2l-13.3-40c-0.9-2.8-3.5-4.8-6.4-5.1l-33.2-3.1
	c-4.1-0.4-7.8,2.7-8.2,6.8c-0.4,4.1,2.7,7.8,6.8,8.2l22.4,2.1c3.6,0.3,6.6,2.7,7.8,6.2l45.2,135.7c1.8,5.5-2,11.4-7.8,11.9
	l-22.4,2.1c-0.2,0-0.4,0.1-0.6,0.1c-8.1,1.5-23.1,9.4-21.8,29.3c1.1,17.8,20,24,30.9,24.8l166.1,15.3c0.8,0.1,1.6,0,2.3-0.1
	c3.1-0.7,5.6-3.3,5.9-6.6c0.4-4.1-2.7-7.8-6.8-8.2l-166.3-15.3c-0.2,0-16.6-1.7-17.1-10.8c-0.6-9,4.9-12.1,8.1-13.1
	c0.7-0.2,1.3-0.4,2-0.4l170.7-15.7c3.1-0.3,5.7-2.5,6.6-5.5l23.2-86.2C486.8,392.9,486.4,390.6,485.1,388.8z M382.5,391.7l16.8,1.5
	c5,0.5,8.7,4.9,8.2,9.9l-1.2,13.3c-0.5,5-4.9,8.7-9.9,8.2l-16.8-1.6c-5-0.5-8.7-4.9-8.2-9.9l1.2-13.3
	C373.1,394.9,377.5,391.2,382.5,391.7z M313.3,385.3l36.2,3.3c5,0.5,8.7,4.9,8.2,9.9l-1.2,13.3c-0.5,5-4.9,8.7-9.9,8.2l-30.4-2.8
	c-3.6-0.3-6.6-2.7-7.8-6.2l-4.6-13.8C301.8,391,306.8,384.7,313.3,385.3z M342.6,482.1l-3,0.3c-4.2,0.4-8.1-2.2-9.4-6.2l-10.3-30.8
	c-2.1-6.2,2.9-12.5,9.4-11.9l15.9,1.5c5,0.5,8.7,4.9,8.2,9.9l-2.7,29.1C350.3,478.3,346.9,481.7,342.6,482.1z M378.2,438l16.8,1.5
	c5,0.5,8.7,4.9,8.2,9.9l-1.8,19.8c-0.4,4.3-3.8,7.8-8.2,8.2l-17.1,1.6c-5.6,0.5-10.4-4.2-9.9-9.9l2.1-23
	C368.8,441.2,373.2,437.6,378.2,438z M443.6,472.8l-16.8,1.5c-5.6,0.5-10.4-4.2-9.9-9.9l1.3-13.7c0.5-5,4.9-8.7,9.9-8.2l18.4,1.7
	c5.6,0.5,9.4,5.9,7.9,11.4l-2.8,10.5C450.6,469.8,447.4,472.5,443.6,472.8z M453.5,429.9l-24.1-2.2c-5-0.5-8.7-4.9-8.2-9.9l1.2-13.3
	c0.5-5,4.9-8.7,9.9-8.2l26.4,2.4c5.6,0.5,9.4,5.9,7.9,11.4l-3.5,13.1C461.9,427.5,457.9,430.3,453.5,429.9z"/>
<g>
	<path d="M443.7,321.4c-0.9,0.2-2,0.1-2.9-0.5c-1.9-1.1-2.5-3.5-1.4-5.4c3.2-5.4,12.4-18.3,28.5-21.8c14.6-3.2,26.7,0.6,32.6,3.2
		c2,0.9,2.9,3.2,2,5.2c-0.9,2-3.2,2.9-5.2,2.1c-5-2.2-15.3-5.4-27.7-2.7c-13.1,2.9-20.8,13.6-23.4,18.1
		C445.7,320.5,444.8,321.1,443.7,321.4L443.7,321.4z"/>
	<path d="M444.1,290.9c-1.3,0.3-2.7-0.1-3.6-1.2c-1.4-1.5-1.3-3.9,0.3-5.3c6-5.4,12.7-8.9,20.1-10.6c10.6-2.3,19.7-1.1,25.5,0.3
		c2,0.5,3.3,2.5,2.8,4.6c-0.5,2-2.5,3.3-4.6,2.8c-5-1.2-13-2.2-22.1-0.2c-6.1,1.3-11.7,4.3-16.7,8.8
		C445.3,290.5,444.7,290.8,444.1,290.9L444.1,290.9z"/>
</g>
<g>
	<path d="M125,166.2c-22.7,0-41.2-18.2-41.2-40.6c0-22.4,18.4-40.6,41.2-40.6c22.8,0,41.2,18.1,41.2,40.6
		C166.2,148,147.8,166.2,125,166.2L125,166.2z"/>
	<path d="M178,240.9l-0.3,310c-0.1,30.9-46.3,30.7-46.2-0.7l-0.2-180.4h-9v180.1c0.1,31.5-46.7,32.3-46.7,1V239.4h-8.2v111.2
		c0.1,26.7-36.6,26.7-36.5,0.5V229.7c-0.1-32.8,24.6-52,50.6-52h73.4c17.4,0,30,6.8,40.7,21.7l37,53.2h64.2c25.9,0,24.5,36.1,0.5,36
		h-74.1c-5.8,0.1-12.8-2-16.9-8.1L178,240.9L178,240.9z"/>
</g>
</svg>
