<?xml version="1.0" encoding="utf-8"?>
<!-- Generator: Adobe Illustrator 18.0.0, SVG Export Plug-In . SVG Version: 6.00 Build 0)  -->
<!DOCTYPE svg PUBLIC "-//W3C//DTD SVG 1.1//EN" "http://www.w3.org/Graphics/SVG/1.1/DTD/svg11.dtd">
<svg version="1.1" id="Layer_1" xmlns="http://www.w3.org/2000/svg" xmlns:xlink="http://www.w3.org/1999/xlink" x="0px" y="0px"
	 width="612px" height="612px" viewBox="0 0 612 612" enable-background="new 0 0 612 612" xml:space="preserve">
<g>
	<g>
		<circle cx="258.7" cy="218.1" r="35.6"/>
		<path d="M276.1,309c-2.2,0-4.3-1.1-5.5-3.1c-1.8-3-0.8-7,2.3-8.8l32.9-19.5c3-1.8,7-0.8,8.8,2.3s0.8,7-2.3,8.8l-32.9,19.5
			C278.3,308.8,277.2,309,276.1,309L276.1,309z"/>
		<path d="M314.3,314.9c-5.3-8.6-16.6-11.2-25.2-5.9L257,329l-21.5-67.5c-0.4-1.5-0.9-3-1.4-4.2c-4-9.4-16.9-21.2-29.2-23.5
			c-28.8-5.4-38.1,24.6-38.8,27.5c-0.7,2.9-42.2,195.2-42.2,195.2l-64.4,72.8c-2.1,3-3.1,6.4-3.1,10.6c-0.9,7.1,1,13.1,5.6,18.4
			c4.5,5.1,10.4,8.2,17.4,9.1c10.4,0.8,18.3-3.3,23.6-12.4l68.1-78.9c1.2-2.5,2.9-6,5-10.6l11.9-50.2l51.9,42.8l0.7,93.4
			c2.5,12,10.2,18.7,23,19.9c7.1,0.3,13.1-1.7,18.4-6.3c5.1-4.6,8-10.2,8.4-16.8c0-1.2,0-3,0-5.7l-1.3-99c-0.9-2.9-1.9-5.6-3.1-8.1
			L221,373.4l-22.1-64.8c-1-2.9,0.5-6,3.4-7c2.9-1,6,0.5,7,3.4l20,57.3c1.7,5.4,5.8,9.7,11.1,11.6c2.1,0.8,4.2,1.1,6.4,1.1
			c3.4,0,6.7-1,9.7-2.7l52.1-32.3C317,334.7,319.6,323.5,314.3,314.9z"/>
	</g>
</g>
<g>
	<g>
		<circle cx="508.6" cy="224.2" r="35.6"/>
		<path d="M526,315.1c-2.2,0-4.3-1.1-5.5-3.1c-1.8-3-0.8-7,2.3-8.8l32.9-19.5c3-1.8,7-0.8,8.8,2.3c1.8,3,0.8,7-2.3,8.8l-32.9,19.5
			C528.1,314.9,527,315.1,526,315.1L526,315.1z"/>
		<path d="M564.1,321c-5.3-8.6-16.6-11.2-25.2-5.9l-32.1,20l-21.5-67.5c-0.4-1.5-0.9-3-1.4-4.2c-4-9.4-16.9-21.2-29.2-23.5
			c-28.8-5.4-38.1,24.6-38.8,27.5c-0.7,2.9-42.2,195.2-42.2,195.2l-64.4,72.8c-2.1,3-3.1,6.4-3.1,10.6c-0.9,7.1,1,13.1,5.6,18.4
			c4.5,5.1,10.4,8.2,17.4,9.1c10.4,0.8,18.3-3.3,23.6-12.4l68.1-78.9c1.2-2.5,2.9-6,5-10.6l11.9-50.2l51.9,42.8l0.7,93.4
			c2.5,12,10.2,18.7,23,19.9c7.1,0.3,13.1-1.7,18.4-6.3c5.1-4.6,8-10.2,8.4-16.8c0-1.2,0-3,0-5.7l-1.3-99c-0.9-2.9-1.9-5.6-3.1-8.1
			l-64.8-62.1l-22.1-64.8c-1-2.9,0.5-6,3.4-7c2.9-1,6,0.5,7,3.4l20,57.3c1.7,5.4,5.8,9.7,11.1,11.6c2.1,0.8,4.2,1.1,6.4,1.1
			c3.4,0,6.7-1,9.7-2.7l52.1-32.3C566.8,340.8,569.4,329.6,564.1,321z"/>
	</g>
</g>
</svg>
