<?xml version="1.0" encoding="utf-8"?>
<!-- Generator: Adobe Illustrator 18.0.0, SVG Export Plug-In . SVG Version: 6.00 Build 0)  -->
<!DOCTYPE svg PUBLIC "-//W3C//DTD SVG 1.1//EN" "http://www.w3.org/Graphics/SVG/1.1/DTD/svg11.dtd">
<svg version="1.1" id="Layer_1" xmlns="http://www.w3.org/2000/svg" xmlns:xlink="http://www.w3.org/1999/xlink" x="0px" y="0px"
	 width="612px" height="612px" viewBox="0 0 612 612" enable-background="new 0 0 612 612" xml:space="preserve">
<g>
	<path d="M307.3,181.5c-21.4,0-38.8,17.3-38.8,38.6c0,21.4,17.4,38.7,38.8,38.7c21.3,0,38.7-17.4,38.7-38.7
		C346,198.8,328.6,181.5,307.3,181.5z"/>
	<rect x="183.9" y="192" width="23.1" height="152.5"/>
	<path d="M434.5,345.4c-10.9-26.8-40.1-79-102-76.7c-37.2,1.4-43.8,52.7-44.8,76.7H434.5z"/>
	<polygon points="544.2,191 544.2,545.3 487.6,545.3 487.6,361.9 122,361.9 122,545.3 65.1,545.3 65.1,191 37.5,191 37.5,573.3 
		65.1,573.3 65.1,572.9 544.2,572.9 544.2,573.3 571.8,573.3 571.8,191 	"/>
	<path d="M277.5,345.4c0,0,0-0.1,0-0.1c0-12.6-11.6-22.7-25.7-22.7c-14.1,0-25.7,10.1-25.7,22.7c0,0.1,0,0.1,0,0.1H277.5z"/>
</g>
</svg>
