<?xml version="1.0" encoding="utf-8"?>
<!-- Generator: Adobe Illustrator 18.0.0, SVG Export Plug-In . SVG Version: 6.00 Build 0)  -->
<!DOCTYPE svg PUBLIC "-//W3C//DTD SVG 1.1//EN" "http://www.w3.org/Graphics/SVG/1.1/DTD/svg11.dtd">
<svg version="1.1" id="Layer_1" xmlns="http://www.w3.org/2000/svg" xmlns:xlink="http://www.w3.org/1999/xlink" x="0px" y="0px"
	 width="612px" height="612px" viewBox="0 0 612 612" enable-background="new 0 0 612 612" xml:space="preserve">
<path d="M533.8,293.3c-16.7-4.2-41.9-34.4-41.9-34.4c-33.5-56.3-104.4-95.1-186.4-95.1c-82.5,0-153.6,39.2-186.9,96
	c0,0-23.7,29.2-40.4,33.4c-13.1,3.3-25,19.6-25,33.4V337c0,13.7,11.9,30,25,33.3c16.7,4.2,39.7,33.4,39.7,33.4
	c33,57.4,104.6,97.1,187.6,97.1c80.7,0,150.7-37.6,184.8-92.5c0,0,26.8-33.7,43.5-38c13.1-3.3,25-19.6,25-33.3v-10.4
	C558.8,312.9,546.9,296.6,533.8,293.3z M438,267c9.3,0,16.8,7.5,16.8,16.8s-7.5,16.8-16.8,16.8c-9.2,0-16.8-7.5-16.8-16.8
	S428.8,267,438,267z M398.8,283.8c0,9.3-7.5,16.8-16.8,16.8c-9.2,0-16.8-7.5-16.8-16.8S372.8,267,382,267
	C391.3,267,398.8,274.5,398.8,283.8z M372.1,212.2c9.3,0,16.8,7.5,16.8,16.8c0,9.2-7.5,16.8-16.8,16.8s-16.8-7.6-16.8-16.8
	C355.3,219.7,362.8,212.2,372.1,212.2z M253.2,459.3c-9.3,0-16.8-7.5-16.8-16.8s7.5-16.8,16.8-16.8c9.2,0,16.8,7.5,16.8,16.8
	C270.1,451.8,262.4,459.3,253.2,459.3z M309.3,459.3c-9.3,0-16.8-7.5-16.8-16.8s7.5-16.8,16.8-16.8c9.2,0,16.8,7.5,16.8,16.8
	C326.1,451.8,318.4,459.3,309.3,459.3z M327.3,407.3c-9.2,0-16.8-7.5-16.8-16.8s7.6-16.8,16.8-16.8c9.3,0,16.9,7.5,16.9,16.8
	C344.2,399.8,336.6,407.3,327.3,407.3z M362.1,320c9.3,0,16.8,7.5,16.8,16.8s-7.5,16.8-16.8,16.8c-9.2,0-16.8-7.5-16.8-16.8
	C345.3,327.5,352.9,320,362.1,320z M365.3,459.3c-9.3,0-16.9-7.5-16.9-16.8s7.6-16.8,16.9-16.8c9.2,0,16.8,7.5,16.8,16.8
	C382.1,451.8,374.4,459.3,365.3,459.3z M383.3,407.3c-9.2,0-16.8-7.5-16.8-16.8s7.6-16.8,16.8-16.8c9.3,0,16.8,7.5,16.8,16.8
	C400.1,399.8,392.6,407.3,383.3,407.3z M401.3,336.8c0-9.3,7.6-16.8,16.8-16.8c9.3,0,16.8,7.5,16.8,16.8s-7.5,16.8-16.8,16.8
	C409,353.6,401.3,346.1,401.3,336.8z M439.3,407.3c-9.2,0-16.8-7.5-16.8-16.8s7.6-16.8,16.8-16.8c9.3,0,16.9,7.5,16.9,16.8
	C456.2,399.8,448.6,407.3,439.3,407.3z M474.2,353.6c-9.2,0-16.8-7.5-16.8-16.8S465,320,474.2,320c9.3,0,16.8,7.5,16.8,16.8
	S483.5,353.6,474.2,353.6z"/>
</svg>
