<?xml version="1.0" encoding="utf-8"?>
<!-- Generator: Adobe Illustrator 18.0.0, SVG Export Plug-In . SVG Version: 6.00 Build 0)  -->
<!DOCTYPE svg PUBLIC "-//W3C//DTD SVG 1.1//EN" "http://www.w3.org/Graphics/SVG/1.1/DTD/svg11.dtd">
<svg version="1.1" id="Layer_1" xmlns="http://www.w3.org/2000/svg" xmlns:xlink="http://www.w3.org/1999/xlink" x="0px" y="0px"
	 width="612px" height="612px" viewBox="0 0 612 612" enable-background="new 0 0 612 612" xml:space="preserve">
<g>
	<path d="M202.7,82.2v60.8c0,3.9,2.9,6.9,6.9,6.9h259.1c3.9,0,6.9,2.9,6.9,6.9v259.1c0,3.9,2.9,6.9,6.9,6.9h60.8
		c3.9,0,6.9-2.9,6.9-6.9V82.2c0-3.9-2.9-6.9-6.9-6.9H209.5C205.6,75.4,202.7,78.3,202.7,82.2z"/>
	<path d="M429.4,189.2H95.7c-3.9,0-6.9,2.9-6.9,6.9v333.7c0,3.9,2.9,6.9,6.9,6.9h333.7c3.9,0,6.9-2.9,6.9-6.9V196.1
		C436.2,192.2,433.3,189.2,429.4,189.2z M357.7,377.6H167.3c-7.9,0-14.7-6.9-14.7-14.7c0-7.9,6.9-14.7,14.7-14.7h190.4
		c7.9,0,14.7,6.9,14.7,14.7C372.4,370.8,365.6,377.6,357.7,377.6z"/>
</g>
</svg>
