<?xml version="1.0" encoding="utf-8"?>
<!-- Generator: Adobe Illustrator 18.0.0, SVG Export Plug-In . SVG Version: 6.00 Build 0)  -->
<!DOCTYPE svg PUBLIC "-//W3C//DTD SVG 1.1//EN" "http://www.w3.org/Graphics/SVG/1.1/DTD/svg11.dtd">
<svg version="1.1" id="Layer_1" xmlns="http://www.w3.org/2000/svg" xmlns:xlink="http://www.w3.org/1999/xlink" x="0px" y="0px"
	 width="612px" height="612px" viewBox="0 0 612 612" enable-background="new 0 0 612 612" xml:space="preserve">
<path d="M477.9,393.5c-23.7-36.2-22.7-122.1-10.1-150.6c7-15.8-0.5-16.1-0.5-16.1h-49.2H369c0,0-7.5,0.3-0.5,16.1
	c12.6,28.5,13.6,114.3-10.1,150.6c-32.1,49.1,0,87.4,0,87.4h59.8h59.8C477.9,480.9,510.1,442.6,477.9,393.5z"/>
<path d="M429,126.9c3-2.1,4.9-4.9,4.9-8.2c0-6.2-7.1-11.3-15.8-11.3c-8.7,0-15.8,5-15.8,11.3c0,3.2,1.9,6.1,4.9,8.2
	c3.5-0.5,7.2-0.8,10.9-0.8C421.9,126.1,425.5,126.4,429,126.9z"/>
<path d="M429,132.3c-3.5-0.5-7.1-0.8-10.9-0.8c-3.7,0-7.4,0.3-10.9,0.8c-27.3,3.7-47.9,21.2-47.9,42.3c0,8.6,3.5,16.6,9.4,23.3h98.8
	c5.9-6.7,9.4-14.7,9.4-23.3C476.9,153.5,456.3,136,429,132.3z"/>
<path d="M469.7,205.4h-2.1h-98.8h-2.1c-3.6,0-6.5,3.1-6.5,6.9c0,3.8,2.9,6.9,6.5,6.9h15.9h71.2h15.9c3.6,0,6.5-3.1,6.5-6.9
	C476.1,208.5,473.2,205.4,469.7,205.4z"/>
<path d="M469.7,488.5h-2.1h-98.8h-2.1c-3.6,0-6.5,3.1-6.5,6.9c0,3.8,2.9,6.9,6.5,6.9h15.9h71.2h15.9c3.6,0,6.5-3.1,6.5-6.9
	C476.1,491.6,473.2,488.5,469.7,488.5z"/>
<path d="M471.5,509.9H364.8c-6.4,7.3-10.2,15.9-10.2,25.2c0,9.3,3.8,17.9,10.1,25.1h106.7c6.4-7.3,10.1-15.9,10.1-25.1
	C481.6,525.8,477.9,517.1,471.5,509.9z"/>
<path d="M216.7,258.9c-3.5-0.5-7.1-0.8-10.9-0.8c-3.7,0-7.4,0.3-10.9,0.8c-27.3,3.7-47.9,21.2-47.9,42.3c0,8.6,3.5,16.6,9.4,23.3
	h98.8c5.9-6.7,9.4-14.7,9.4-23.3C264.6,280.2,243.9,262.7,216.7,258.9z"/>
<path d="M257.3,332.1h-2.1h-98.8h-2.1c-3.6,0-6.5,3.1-6.5,6.9c0,3.8,2.9,6.9,6.5,6.9h15.9h71.2h15.9c3.6,0,6.5-3.1,6.5-6.9
	C263.8,335.2,260.9,332.1,257.3,332.1z"/>
<g>
	<path d="M276.7,561.8H134.9l-1.4-1.8c-0.8-1-18.3-24.5-0.7-72.9c13-35.8,23.8-97,17.3-114.8c-2.8-7.6-3-12.7-0.8-15.9
		c1.3-1.8,3.3-2.9,5.5-2.9l101.8,0c0,0,0,0,0,0c2.3,0,4.3,1.1,5.6,2.9c2.3,3.2,2,8.3-0.7,15.9c-6.5,17.8,4.3,79,17.3,114.8
		c17.6,48.4,0.1,71.9-0.7,72.9L276.7,561.8z M139.7,552.5h132.1c3.2-5.9,11.3-26.3-1.8-62.2c-12.2-33.6-25.3-99-17.3-121.1
		c1.2-3.2,1.6-5.2,1.7-6.4l-97.3,0c0.1,1.2,0.5,3.2,1.7,6.4c8,22.1-5.1,87.5-17.3,121.1C128.5,526.2,136.6,546.6,139.7,552.5z"/>
</g>
<path d="M245.9,432.9h-80.3c-2,19.9-8.6,45.6-15,61.5c-13.6,33.7,0,49.6,0,49.6h52.6h2.5h2.5h52.6c0,0,13.6-15.9,0-49.6
	C254.5,478.5,248,452.8,245.9,432.9z"/>
</svg>
