<?xml version="1.0" encoding="utf-8"?>
<!-- Generator: Adobe Illustrator 18.0.0, SVG Export Plug-In . SVG Version: 6.00 Build 0)  -->
<!DOCTYPE svg PUBLIC "-//W3C//DTD SVG 1.1//EN" "http://www.w3.org/Graphics/SVG/1.1/DTD/svg11.dtd">
<svg version="1.1" id="Layer_1" xmlns="http://www.w3.org/2000/svg" xmlns:xlink="http://www.w3.org/1999/xlink" x="0px" y="0px"
	 width="612px" height="612px" viewBox="0 0 612 612" enable-background="new 0 0 612 612" xml:space="preserve">
<g>
	<path d="M512.6,108L512.6,108c-0.2-0.3-1-1-1.2-1.2c0,0,0,0,0,0c-47.2-45.6-122.6-9.1-149.1,17.5c-48.7,48.7-59.1,104.2-41.3,137.5
		c-5.7,33.6-55.7,76.2-92.3,93c-12.8,12.8-148,148-148,148l0.1,0c-0.2,0.2-0.3,0.3-0.5,0.4c-12,12-17.5,25.9-5.5,37.9
		c0.6,0.6,2.9,2.9,3.5,3.5c12,12,28.6,9.2,40.6-2.8c0.1-0.2,0.3-0.3,0.4-0.5l0,0.1c0,0,135.2-135.2,148-148
		c16.8-36.6,56.8-89.3,90.4-95c33.3,17.8,92,9.7,140.7-39C529.2,228.7,558.3,155.2,512.6,108z M382.8,154.7
		c-7.2,8.4-17.4,19.4-24.1,31.4c-6.6,11.9-9.5,26.9-12.2,37.6c-2.8,10.8-3.2,18.4-2.4,18.2c-1.7,0.8-8.6-30.9,5.6-60.6
		c3.6-7.5,9.3-13,14.1-18.4c4.8-5.4,10.4-9.2,14.9-12.7c9.4-6.8,16.8-9.2,16.8-9.2S390,146.2,382.8,154.7z"/>
</g>
</svg>
