<?xml version="1.0" encoding="utf-8"?>
<!-- Generator: Adobe Illustrator 18.0.0, SVG Export Plug-In . SVG Version: 6.00 Build 0)  -->
<!DOCTYPE svg PUBLIC "-//W3C//DTD SVG 1.1//EN" "http://www.w3.org/Graphics/SVG/1.1/DTD/svg11.dtd">
<svg version="1.1" id="Layer_1" xmlns="http://www.w3.org/2000/svg" xmlns:xlink="http://www.w3.org/1999/xlink" x="0px" y="0px"
	 width="612px" height="612px" viewBox="0 0 612 612" enable-background="new 0 0 612 612" xml:space="preserve">
<g>
	<path d="M561.1,176.7L93.8,424.6c-11,5.5-24.1,1.1-29.6-8.8c-5.5-11-1.1-24.1,8.8-29.6h1.1l479.3-227.1c4.4-2.2,11,0,13.2,4.4
		C567.7,169.1,565.5,174.6,561.1,176.7z"/>
	<path d="M455.8,81.3L220,555.2c-5.5,11-18.6,15.4-28.5,9.9c-11-5.5-15.4-18.6-9.9-28.5v-1.1L439.4,72.5c2.2-4.4,8.8-6.6,13.2-3.3
		C456.9,70.3,458,76.9,455.8,81.3z"/>
</g>
</svg>
