<?xml version="1.0" encoding="utf-8"?>
<!-- Generator: Adobe Illustrator 18.0.0, SVG Export Plug-In . SVG Version: 6.00 Build 0)  -->
<!DOCTYPE svg PUBLIC "-//W3C//DTD SVG 1.1//EN" "http://www.w3.org/Graphics/SVG/1.1/DTD/svg11.dtd">
<svg version="1.1" id="Layer_1" xmlns="http://www.w3.org/2000/svg" xmlns:xlink="http://www.w3.org/1999/xlink" x="0px" y="0px"
	 width="612px" height="612px" viewBox="0 0 612 612" enable-background="new 0 0 612 612" xml:space="preserve">
<g>
	<g>
		<path d="M300.3,211c-1.1-1.6-2.8-2.8-4.8-3.2c-0.1,0-17.9-3.4-16.7-26.3c0.4-7.9,5-11.7,12.6-17.2c7.3-5.4,16.4-12.2,16.7-25.3
			c0.7-27.2-21.8-41.2-22-41.3c-1.2-0.8-2.6-1.2-4-1.2c-2.5,0-4.9,1.2-6.3,3.3c-1,1.6-1.4,3.5-1,5.4c0.4,1.9,1.5,3.5,3.2,4.6
			c2.7,1.9,15.6,11.7,15.2,28.9c-0.1,5.9-4,9.1-10.9,14.3c-7.4,5.5-17.6,13-18.4,27.9c-1.5,27.9,18.2,39.1,28.7,41.2l1.5,0.2
			c3.6,0,6.7-2.4,7.3-5.8C301.7,214.4,301.3,212.6,300.3,211z"/>
		<path d="M358.3,210.9c-1.1-1.7-2.9-2.8-4.9-3.1c-0.5-0.1-13.2-2.3-12.3-17.7c0.3-5,3.6-7.4,9.4-11.4c5.9-4.1,14.1-9.6,14.4-20.5
			c0.6-21.5-18.5-32.5-18.7-32.6c-1.2-0.7-2.5-1-3.8-1c-2.6,0-5.1,1.4-6.4,3.5c-1,1.6-1.3,3.5-0.9,5.4c0.5,1.9,1.7,3.5,3.4,4.5
			c0.1,0,11.9,6.8,11.5,19.8c0,3.3-2.2,5.1-8.1,9.1c-6.4,4.3-15,10.2-15.7,22.3c-1.3,22.2,15.5,31.1,24.6,32.7l1.4,0.1
			c3.6,0,6.7-2.5,7.4-5.9C359.8,214.3,359.4,212.4,358.3,210.9z"/>
		<path d="M224.1,125.6c-1.1-0.7-2.4-1-3.8-1c-2.6,0-5,1.4-6.4,3.5c-1,1.6-1.3,3.5-0.8,5.3c0.5,1.9,1.7,3.5,3.4,4.5
			c0.1,0.1,11.8,6.9,11.5,19.8c-0.1,3.3-2.4,5.2-8.1,9.1c-6.4,4.3-15,10.1-15.8,22.3c-1.3,22.2,15.5,31.1,24.6,32.7l1.4,0.1
			c3.6,0,6.7-2.5,7.3-5.9c0.3-1.9-0.1-3.7-1.1-5.3c-1.1-1.7-2.9-2.8-4.9-3.1c-0.5-0.1-13.2-2.4-12.4-17.7c0.3-4.9,3.6-7.4,9.4-11.4
			c5.9-4.1,14.1-9.6,14.4-20.5C243.4,137,224.8,126,224.1,125.6z"/>
	</g>
</g>
<g>
	<g>
		<path d="M281.5,337.1c-4.9,9-7.9,19.2-7.9,30.1c0,10.9,3,21.1,7.9,30.1c4.9-9,7.9-19.2,7.9-30.1
			C289.4,356.2,286.4,346.1,281.5,337.1z"/>
		<path d="M337.1,303.6c-20.2,0-37.9,9.6-49.6,24.2c3.3,5.2,5.8,10.9,7.7,16.8c8.1-14.9,23.7-25.2,41.8-25.2
			c26.2,0,47.6,21.4,47.6,47.7c0,26.3-21.3,47.7-47.6,47.7c-18.1,0-33.7-10.3-41.8-25.2c-1.9,6-4.4,11.7-7.7,16.8
			c11.7,14.6,29.4,24.2,49.6,24.2c35,0,63.5-28.5,63.5-63.5S372.1,303.6,337.1,303.6z"/>
		<path d="M225.9,414.8c-26.3,0-47.7-21.4-47.7-47.7c0-26.3,21.4-47.7,47.7-47.7c18.1,0,33.7,10.3,41.8,25.2
			c1.9-6,4.4-11.7,7.8-16.8c-11.7-14.6-29.4-24.2-49.5-24.2c-35,0-63.5,28.5-63.5,63.5s28.5,63.5,63.5,63.5
			c20.1,0,37.9-9.6,49.5-24.2c-3.3-5.2-5.8-10.9-7.8-16.8C259.6,404.6,244,414.8,225.9,414.8z"/>
		<path d="M446.3,244.9H129.6v263.5c0,27.5,23.7,49.4,49.4,49.4h212.3c29,0,48.6-24.5,48.6-49.4v-77.3c57.2,0,98.9-43,98.9-93.1
			C538.8,286.9,507.7,244.9,446.3,244.9z M337.1,440.5c-22.4,0-42.2-10.3-55.7-26.1c-13.4,15.8-33.2,26.1-55.6,26.1
			c-40.4,0-73.3-32.9-73.3-73.3s32.9-73.3,73.3-73.3c22.3,0,42.1,10.3,55.6,26.1c13.5-15.8,33.3-26.1,55.7-26.1
			c40.4,0,73.3,32.9,73.3,73.3S377.5,440.5,337.1,440.5z M439.9,386v-93.9h10.6c34.3,0,43.5,28.1,43.3,46.1
			C493.9,367.2,479.2,386.8,439.9,386z"/>
		<path d="M225.9,329.3c-20.9,0-37.9,17-37.9,37.9c0,20.9,17,37.9,37.9,37.9c20.9,0,37.9-17,37.9-37.9
			C263.7,346.3,246.8,329.3,225.9,329.3z M225.9,382.2c-8.3,0-15-6.7-15-15s6.7-15,15-15c8.3,0,15,6.7,15,15
			S234.2,382.2,225.9,382.2z"/>
		<path d="M337.1,405c20.8,0,37.8-17,37.8-37.9c0-20.9-17-37.9-37.8-37.9c-20.9,0-37.9,17-37.9,37.9
			C299.2,388.1,316.2,405,337.1,405z M337.1,352.1c8.3,0,15,6.7,15,15s-6.7,15-15,15c-8.3,0-15.1-6.7-15.1-15
			S328.8,352.1,337.1,352.1z"/>
	</g>
</g>
</svg>
